<?xml version="1.0" encoding="utf-8"?>
<svg version="1.1" id="Layer_1" xmlns="http://www.w3.org/2000/svg" xmlns:xlink="http://www.w3.org/1999/xlink" x="0px" y="0px"
	 viewBox="0 0 38 38" style="enable-background:new 0 0 38 38;" xml:space="preserve">
<style type="text/css">
	.st0{fill:#FF5722;}
	.st1{fill:#1C0802;}
</style>
<path class="st0" d="M0,4.22C0,1.9,1.9,0,4.22,0h29.56C36.1,0,38,1.9,38,4.22v29.56C38,36.1,36.1,38,33.78,38H4.22
	C1.9,38,0,36.1,0,33.78V4.22z"/>
<path class="st1" d="M3.17,3.17v31.67h31.67V3.17H3.17z M18.68,26.39l-0.84-3.06h-4.12l-0.74,3.06H9.82l4.64-14.99h2.74l4.75,14.99
	H18.68z M26.28,26.39h-2.96V15.2h2.96V26.39z M25.97,13.51c-0.32,0.32-0.63,0.42-1.16,0.42c-0.53,0-0.84-0.11-1.16-0.42
	s-0.42-0.63-0.42-1.16c0-0.42,0.11-0.84,0.42-1.16c0.32-0.32,0.63-0.42,1.16-0.42c0.53,0,0.84,0.11,1.16,0.42s0.42,0.63,0.42,1.16
	C26.39,12.77,26.18,13.19,25.97,13.51z"/>
<path class="st1" d="M14.36,20.79h2.85l-1.37-5.38L14.36,20.79z"/>
</svg>
