<?xml version="1.0" encoding="utf-8"?>
<!-- Generator: Adobe Illustrator 23.0.0, SVG Export Plug-In . SVG Version: 6.00 Build 0)  -->
<svg version="1.1" id="Layer_1" xmlns="http://www.w3.org/2000/svg" xmlns:xlink="http://www.w3.org/1999/xlink" x="0px" y="0px"
	 viewBox="0 0 38 38" style="enable-background:new 0 0 38 38;" xml:space="preserve">
<style type="text/css">
	.st0{fill:#7CB342;}
</style>
<path class="st0" d="M7.1,24c0,1.1-0.9,2-2,2s-2-0.9-2-2V15c0-1.1,0.9-2,2-2s2,0.9,2,2V24z M34.9,24c0,1.1-0.9,2-2,2
	c-1.1,0-2-0.9-2-2V15c0-1.1,0.9-2,2-2c1.1,0,2,0.9,2,2V24z M17,34.9c0,1.1-0.9,2-2,2s-2-0.9-2-2v-8.9c0-1.1,0.9-2,2-2s2,0.9,2,2
	V34.9z M25,34.9c0,1.1-0.9,2-2,2c-1.1,0-2-0.9-2-2v-8.9c0-1.1,0.9-2,2-2c1.1,0,2,0.9,2,2V34.9z"/>
<path class="st0" d="M9.1,13v14.9c0,1.1,0.9,2,2,2h15.9c1.1,0,2-0.9,2-2V13H9.1z M19,3.1c-6,0-9.6,3.6-9.9,7.9h19.8
	C28.6,6.7,25,3.1,19,3.1z M15,8.7c-0.6,0-1-0.4-1-1s0.4-1,1-1c0.6,0,1,0.4,1,1C16,8.2,15.6,8.7,15,8.7z M23,8.7c-0.6,0-1-0.4-1-1
	s0.4-1,1-1s1,0.4,1,1C24,8.2,23.6,8.7,23,8.7z"/>
<path class="st0" d="M23.3,5.6c-0.2,0-0.4-0.1-0.6-0.2c-0.5-0.3-0.6-0.9-0.3-1.4l1.7-2.5c0.3-0.5,0.9-0.6,1.4-0.3
	c0.5,0.3,0.6,0.9,0.3,1.4l-1.7,2.5C24,5.4,23.7,5.6,23.3,5.6z M14.3,5.2c-0.3,0-0.7-0.2-0.8-0.5l-1.3-2.1c-0.3-0.5-0.2-1.1,0.3-1.4
	c0.5-0.3,1.1-0.2,1.4,0.3l1.3,2.1c0.3,0.5,0.2,1.1-0.3,1.4C14.7,5.1,14.5,5.2,14.3,5.2z"/>
</svg>
