<?xml version="1.0" encoding="utf-8"?>
<!-- Generator: Adobe Illustrator 23.0.0, SVG Export Plug-In . SVG Version: 6.00 Build 0)  -->
<svg version="1.1" id="Layer_1" xmlns="http://www.w3.org/2000/svg" xmlns:xlink="http://www.w3.org/1999/xlink" x="0px" y="0px"
	 viewBox="0 0 38 38" style="enable-background:new 0 0 38 38;" xml:space="preserve">
<style type="text/css">
	.st0{fill:#020202;}
	.st1{fill:#E34D26;}
	.st2{fill:#F06529;}
	.st3{fill:#EAE9E9;}
	.st4{fill:#EAEAEA;}
	.st5{fill:#FFFFFF;}
</style>
<g>
	<path class="st0" d="M24.85,0.73c0,0.06-0.01,0.11-0.01,0.17c0,1.53,0,3.06,0,4.59c0,0.05,0,0.11,0,0.17c-0.55,0-1.09,0-1.64,0
		c0-0.79,0-1.59,0-2.38c-0.01,0-0.02-0.01-0.03-0.01c-0.37,0.57-0.74,1.13-1.12,1.72c-0.38-0.59-0.75-1.16-1.15-1.76
		c0,0.84,0,1.63,0,2.43c-0.54,0-1.07,0-1.62,0c0-1.64,0-3.28,0-4.92c0.58,0,1.16,0,1.74,0c0.35,0.57,0.69,1.15,1.05,1.74
		c0.36-0.6,0.71-1.17,1.06-1.74C23.69,0.73,24.27,0.73,24.85,0.73z"/>
	<path class="st0" d="M13.3,0.73c0,0.06-0.01,0.11-0.01,0.17c0,1.53,0,3.06,0,4.58c0,0.05,0,0.11,0,0.17c-0.55,0-1.08,0-1.64,0
		c0-0.54,0-1.08,0-1.63c-0.51,0-1.01,0-1.51,0c0,0.54,0,1.08,0,1.63c-0.55,0-1.09,0-1.66,0c0-1.64,0-3.28,0-4.92
		c0.55,0,1.1,0,1.65,0c0,0.54,0,1.08,0,1.62c0.51,0,1.01,0,1.52,0c0-0.55,0-1.08,0-1.62C12.2,0.73,12.75,0.73,13.3,0.73z"/>
	<path class="st0" d="M18.57,0.73c0,0.33-0.01,0.67-0.01,1c0,0.21,0,0.42,0,0.64c-0.49,0-0.97,0-1.46,0c0,1.1,0,2.19,0,3.28
		c-0.55,0-1.08,0-1.64,0c0-1.08,0-2.17,0-3.27c-0.49,0-0.97,0-1.47,0c0-0.56,0-1.1,0-1.65C15.52,0.73,17.05,0.73,18.57,0.73z"/>
	<path class="st0" d="M27.29,0.73c0,1.09,0,2.18,0,3.29c0.78,0,1.55,0,2.33,0c0,0.55,0,1.09,0,1.63c-1.32,0-2.63,0-3.97,0
		c0-0.06,0-0.11,0-0.17c0-1.53,0-3.06,0-4.59c0-0.06,0-0.11-0.01-0.17C26.19,0.73,26.74,0.73,27.29,0.73z"/>
	<path class="st1" d="M6.08,7.93c8.64,0,17.27,0,25.91,0c-0.01,0.17-0.03,0.34-0.04,0.51c-0.09,1-0.18,1.99-0.27,2.99
		c-0.1,1.08-0.2,2.16-0.29,3.25c-0.08,0.85-0.15,1.71-0.23,2.56c-0.09,0.97-0.18,1.94-0.26,2.91c-0.08,0.85-0.15,1.7-0.22,2.55
		c-0.09,0.97-0.18,1.94-0.26,2.91c-0.08,0.84-0.15,1.68-0.22,2.52c-0.09,0.99-0.18,1.97-0.26,2.96c-0.08,0.85-0.15,1.7-0.22,2.55
		c-0.02,0.2-0.05,0.39-0.05,0.59c0,0.11-0.05,0.16-0.15,0.18c-0.74,0.2-1.49,0.41-2.23,0.61c-2.7,0.75-5.39,1.49-8.09,2.24
		c-0.1,0.03-0.23,0.03-0.34,0c-3.42-0.94-6.85-1.89-10.27-2.84c-0.1-0.03-0.14-0.06-0.15-0.18c-0.14-1.65-0.3-3.31-0.44-4.96
		C7.85,27.85,7.72,26.43,7.6,25c-0.13-1.42-0.26-2.84-0.38-4.26c-0.1-1.08-0.19-2.16-0.29-3.25c-0.11-1.19-0.22-2.39-0.32-3.58
		c-0.09-0.97-0.17-1.93-0.25-2.9c-0.09-0.97-0.18-1.94-0.26-2.91C6.08,8.05,6.08,8,6.08,7.93z M19.03,28.31c-0.02,0-0.04,0-0.06,0
		c-1.15-0.31-2.31-0.62-3.47-0.93c-0.08-0.02-0.11-0.05-0.11-0.13c-0.05-0.55-0.1-1.09-0.14-1.64c-0.03-0.28-0.05-0.56-0.08-0.85
		c-1.09,0-2.16,0-3.24,0c0,0.06,0,0.12,0,0.17c0.05,0.6,0.11,1.2,0.16,1.8c0.09,0.99,0.18,1.97,0.26,2.96
		c0.01,0.12,0.05,0.16,0.16,0.19c0.91,0.25,1.83,0.51,2.74,0.76c1.26,0.35,2.52,0.7,3.78,1.05c0,1.11,0,2.23,0,3.35
		c0.94-0.26,1.85-0.51,2.76-0.77c0.87-0.24,1.73-0.49,2.6-0.73c1.01-0.28,2.02-0.57,3.04-0.84c0.15-0.04,0.19-0.13,0.2-0.27
		c0.01-0.29,0.04-0.57,0.06-0.86c0.04-0.43,0.08-0.85,0.12-1.28c0.02-0.26,0.04-0.51,0.07-0.77c0.04-0.4,0.08-0.8,0.12-1.2
		c0.03-0.28,0.04-0.55,0.07-0.83c0.04-0.43,0.08-0.85,0.12-1.28c0.02-0.26,0.04-0.51,0.07-0.77c0.04-0.42,0.08-0.83,0.12-1.25
		c0.02-0.27,0.04-0.53,0.07-0.8c0.04-0.4,0.08-0.8,0.12-1.2c0.03-0.28,0.04-0.55,0.07-0.83c0.04-0.4,0.08-0.79,0.12-1.19
		c0.03-0.28,0.04-0.56,0.07-0.85c0.04-0.43,0.08-0.86,0.12-1.29c0.02-0.25,0.04-0.5,0.07-0.75c0.04-0.42,0.08-0.84,0.12-1.26
		c0.02-0.26,0.04-0.52,0.07-0.78c0.04-0.41,0.08-0.81,0.12-1.22c0.02-0.27,0.04-0.54,0.07-0.81c0.04-0.43,0.08-0.85,0.12-1.28
		c0.02-0.26,0.04-0.51,0.07-0.77c0.03-0.31,0.05-0.61,0.09-0.92c0.01-0.12-0.04-0.15-0.15-0.15c-3.42,0-6.85,0-10.27,0
		c-0.12,0-0.16,0.03-0.16,0.15c0.01,1.03,0,2.05,0,3.08c-0.07,0-0.13,0.01-0.2,0.01c-2.58,0-5.17,0-7.75,0c-0.06,0-0.12,0-0.19,0
		c0.3,3.28,0.59,6.54,0.89,9.8c0.09,0,0.15,0,0.21,0c2.28,0,4.57,0,6.85,0c0.07,0,0.13,0.01,0.2,0.01
		C19.03,24.86,19.03,26.58,19.03,28.31z"/>
	<path class="st2" d="M19.03,13.32c0-1.03,0-2.05,0-3.08c0-0.13,0.04-0.15,0.16-0.15c3.42,0,6.85,0,10.27,0
		c0.12,0,0.17,0.03,0.15,0.15c-0.03,0.31-0.06,0.61-0.09,0.92c-0.02,0.26-0.04,0.51-0.07,0.77c-0.04,0.43-0.08,0.85-0.12,1.28
		c-0.02,0.27-0.04,0.54-0.07,0.81c-0.04,0.41-0.08,0.81-0.12,1.22c-0.02,0.26-0.04,0.52-0.07,0.78c-0.04,0.42-0.08,0.84-0.12,1.26
		c-0.02,0.25-0.04,0.5-0.07,0.75c-0.04,0.43-0.08,0.86-0.12,1.29c-0.02,0.28-0.04,0.56-0.07,0.85c-0.04,0.4-0.08,0.79-0.12,1.19
		c-0.03,0.28-0.04,0.55-0.07,0.83c-0.04,0.4-0.08,0.8-0.12,1.2c-0.02,0.27-0.04,0.53-0.07,0.8c-0.04,0.42-0.08,0.83-0.12,1.25
		c-0.02,0.26-0.04,0.51-0.07,0.77c-0.04,0.43-0.08,0.85-0.12,1.28c-0.02,0.28-0.04,0.55-0.07,0.83c-0.04,0.4-0.08,0.8-0.12,1.2
		c-0.02,0.26-0.04,0.51-0.07,0.77c-0.04,0.43-0.08,0.85-0.12,1.28c-0.02,0.29-0.05,0.57-0.06,0.86c-0.01,0.14-0.04,0.23-0.2,0.27
		c-1.01,0.28-2.03,0.56-3.04,0.84c-0.87,0.24-1.73,0.49-2.6,0.73c-0.91,0.25-1.82,0.51-2.76,0.77c0-1.13,0-2.24,0-3.35
		c0-0.01,0-0.01,0-0.02c1.1-0.31,2.21-0.61,3.31-0.92c1.05-0.29,2.11-0.58,3.16-0.88c0.07-0.02,0.16-0.02,0.16-0.14
		c0.02-0.37,0.06-0.74,0.09-1.11c0.07-0.83,0.15-1.67,0.22-2.5c0.08-0.86,0.16-1.72,0.23-2.58c0.07-0.74,0.13-1.49,0.2-2.23
		c0.04-0.47,0.08-0.95,0.13-1.44c-0.07,0-0.13,0-0.19,0c-2.39,0-4.77,0-7.16,0c-0.06,0-0.11,0-0.17,0.01c0-0.01,0-0.01,0-0.02
		c0-1.1,0-2.2,0-3.3c0-0.01,0-0.01,0-0.02c0.02,0,0.04,0.01,0.06,0.01c2.54,0,5.08,0,7.62,0c0.13,0,0.15-0.05,0.16-0.16
		c0.06-0.74,0.14-1.47,0.2-2.21c0.03-0.29,0.05-0.57,0.08-0.88c-0.08,0-0.13,0-0.19,0c-2.58,0-5.17,0-7.75,0c-0.06,0-0.11,0-0.17,0
		L19.03,13.32z"/>
	<path class="st3" d="M19.03,23.14c-0.07,0-0.13-0.01-0.2-0.01c-2.28,0-4.57,0-6.85,0c-0.06,0-0.12,0-0.21,0
		c-0.3-3.27-0.59-6.53-0.89-9.8c0.08,0,0.13,0,0.19,0c2.58,0,5.17,0,7.75,0c0.07,0,0.13,0,0.2-0.01c0,0,0,0.01,0,0.01
		c0,1.08,0,2.16,0,3.24c0,0.01,0,0.01,0,0.02c-0.04,0-0.07-0.01-0.11-0.01c-1.45,0-2.9,0-4.35,0c-0.04,0-0.08,0.01-0.12,0.01
		c0.1,1.11,0.2,2.2,0.3,3.3c0.05,0,0.08,0.01,0.12,0.01c1.34,0,2.69,0,4.03,0c0.04,0,0.09-0.01,0.13-0.02c0,0.01,0,0.01,0,0.02
		c0,1.08,0,2.15,0,3.23L19.03,23.14z"/>
	<path class="st4" d="M19.03,31.68c0,0.01,0,0.01,0,0.02c-1.26-0.35-2.52-0.7-3.78-1.05c-0.91-0.25-1.82-0.51-2.74-0.76
		c-0.11-0.03-0.15-0.08-0.16-0.19c-0.08-0.99-0.17-1.97-0.26-2.96c-0.05-0.6-0.11-1.2-0.16-1.8c0-0.05,0-0.11,0-0.17
		c1.08,0,2.15,0,3.24,0c0.03,0.28,0.05,0.56,0.08,0.85c0.05,0.55,0.1,1.09,0.14,1.64c0.01,0.08,0.03,0.11,0.11,0.13
		c1.16,0.31,2.31,0.62,3.47,0.93c0.02,0.01,0.04,0,0.06,0l0,0.01C19.03,29.44,19.03,30.56,19.03,31.68z"/>
	<path class="st2" d="M19.03,28.31c0-1.72,0-3.45,0-5.17c0,0,0-0.01,0-0.01c0.06,0,0.11,0.01,0.17,0.01c1.21,0,2.43,0,3.64,0
		c0.06,0,0.12,0,0.18,0c-0.03,0.37-0.06,0.73-0.09,1.08c-0.09,0.98-0.18,1.96-0.26,2.94c-0.01,0.16-0.07,0.21-0.21,0.25
		c-1.14,0.3-2.28,0.61-3.42,0.92L19.03,28.31z"/>
	<path class="st1" d="M19.03,19.88c-0.04,0.01-0.09,0.02-0.13,0.02c-1.34,0-2.69,0-4.03,0c-0.03,0-0.07,0-0.12-0.01
		c-0.1-1.1-0.2-2.19-0.3-3.3c0.05-0.01,0.09-0.01,0.12-0.01c1.45,0,2.9,0,4.35,0c0.04,0,0.07,0.01,0.11,0.01
		C19.03,17.68,19.03,18.78,19.03,19.88z"/>
</g>
<polygon class="st5" points="19.03,31.7 19.03,28.32 22.6,27.32 23.01,23.13 19.03,23.14 19.03,19.88 26.55,19.89 25.66,29.91 "/>
<polygon class="st5" points="19.03,16.58 19.03,13.32 27.14,13.32 26.83,16.53 "/>
</svg>
