<?xml version="1.0" encoding="utf-8"?>
<!-- Generator: Adobe Illustrator 23.0.0, SVG Export Plug-In . SVG Version: 6.00 Build 0)  -->
<svg version="1.1" id="Layer_1" xmlns="http://www.w3.org/2000/svg" xmlns:xlink="http://www.w3.org/1999/xlink" x="0px" y="0px"
	 viewBox="0 0 38 38" style="enable-background:new 0 0 38 38;" xml:space="preserve">
<style type="text/css">
	.st0{fill:#E22B2E;}
	.st1{fill:#E22A2D;}
	.st2{fill:#E22C2F;}
	.st3{fill:#E22C2E;}
	.st4{fill:#1F7ABB;}
	.st5{fill:#E2292C;}
	.st6{fill:#237DBC;}
	.st7{fill:#1977BA;}
	.st8{fill:#1D79BB;}
	.st9{fill:#3286C1;}
	.st10{fill:#1F7BBB;}
</style>
<g>
	<path class="st0" d="M25.9,30.19c0.04-0.94-0.25-1.25-1.16-1.18c-0.28,0.02-0.56,0.15-0.84,0.14c-0.19-0.01-0.38-0.18-0.57-0.27
		c0.13-0.14,0.24-0.39,0.39-0.41c0.61-0.12,1.25-0.25,1.86-0.22c0.94,0.04,1.43,0.57,1.45,1.53c0.03,1.17,0.01,2.33,0.01,3.48
		c-0.09,0.05-0.16,0.13-0.19,0.11c-0.75-0.38-1.45-0.01-2.18,0.12c-0.69,0.12-1.33-0.12-1.59-0.88c-0.27-0.78,0.03-1.6,0.8-1.91
		C24.53,30.44,25.23,30.36,25.9,30.19z M25.88,31.08c-1.3-0.05-1.91,0.24-1.75,0.88c0.07,0.3,0.55,0.69,0.86,0.7
		C25.79,32.69,26.01,32.23,25.88,31.08z"/>
	<path class="st1" d="M17.58,33.61c-0.91-0.77-1.63-0.19-2.39-0.12c-0.71,0.07-1.36-0.18-1.56-0.94c-0.21-0.77-0.01-1.5,0.77-1.84
		c0.62-0.27,1.32-0.36,2.01-0.53c0.15-1.21-0.08-1.31-2.6-0.95c0.18-0.34,0.26-0.72,0.4-0.74c0.77-0.12,1.56-0.25,2.32-0.17
		c0.7,0.07,1.05,0.64,1.05,1.37C17.58,30.89,17.58,32.09,17.58,33.61z M16.66,31.21c-0.11-0.11-0.21-0.21-0.32-0.32
		c-0.54,0.21-1.1,0.38-1.58,0.68c-0.11,0.07-0.01,0.83,0.13,0.88c0.36,0.14,0.93,0.2,1.17,0C16.39,32.19,16.48,31.64,16.66,31.21z"
		/>
	<path class="st2" d="M21.61,3.26c0.65,0.85,0.66,1.75,0.21,2.58c-0.43,0.79-1.02,1.51-1.6,2.2C19.87,8.45,19.41,8.75,19,9.1
		c-1.73,1.51-1.88,2.64-0.6,4.52c0.17,0.25,0.33,0.51,0.54,0.84c-2.54-0.89-3.21-3.78-1.36-5.46c0.54-0.49,1.12-0.93,1.69-1.38
		C20.65,6.5,21.88,5.3,21.61,3.26z"/>
	<path class="st3" d="M18.19,28.42c0.84-0.31,1.24-0.05,1.43,0.74c0.23,0.94,0.55,1.87,1.02,2.84c0.24-0.94,0.57-1.88,0.69-2.84
		c0.11-0.84,0.46-1.01,1.4-0.72c-0.51,1.56-0.97,3.11-1.58,4.61c-0.11,0.28-0.82,0.32-1.37,0.51
		C19.22,31.74,18.71,30.08,18.19,28.42z"/>
	<path class="st4" d="M25.75,22.85c-2.07,1.5-12.82,1.68-14.85-0.01c0.77-0.39,1.43-0.73,2.09-1.07c0.05,0.09,0.11,0.18,0.16,0.27
		c-0.18,0.17-0.36,0.35-0.67,0.64c2.29,0.81,4.53,0.79,6.74,0.71C21.43,23.32,23.64,23.03,25.75,22.85z"/>
	<path class="st5" d="M11.71,26.54c0.41,0,0.71,0,1.08,0c0,2.3,0.06,4.6-0.05,6.89c-0.03,0.52-0.61,1.05-1.02,1.49
		c-0.42,0.45-0.77,0.21-1.03-0.32c0.97-0.56,1.04-1.48,1.03-2.46C11.69,30.31,11.71,28.48,11.71,26.54z"/>
	<path class="st1" d="M23.28,8.06c-0.5,0.37-1.01,0.72-1.49,1.11c-1.42,1.15-1.5,1.75-0.47,3.27c0.74,1.08,0.64,2.02-0.3,2.74
		c-0.11,0.09-0.28,0.1-0.2,0.07c-0.27-0.7-0.4-1.41-0.77-1.95c-1.1-1.6-0.99-2.96,0.58-4.11c0.76-0.56,1.65-0.96,2.48-1.43
		C23.16,7.86,23.22,7.96,23.28,8.06z"/>
	<path class="st6" d="M23.02,16.38c-3.36,0.79-6.74,1.07-10.11,0.22c-0.03-0.15-0.06-0.31-0.09-0.46c0.9-0.33,1.79-0.66,2.69-1
		c0.04,0.08,0.08,0.17,0.12,0.25c-0.35,0.21-0.7,0.42-1.3,0.78C17.38,16.87,20.21,16.24,23.02,16.38z"/>
	<path class="st7" d="M22.62,21.22c-2.17,0.78-4.36,1.02-6.6,0.22c-0.28-0.1-0.5-0.42-0.69-0.68c-0.03-0.04,0.29-0.35,0.48-0.5
		c0.08-0.06,0.27-0.08,0.34-0.03c1.35,1.01,2.85,0.47,4.31,0.47c0.73,0,1.45,0.1,2.18,0.15C22.63,20.97,22.62,21.1,22.62,21.22z"/>
	<path class="st8" d="M15.43,18.02c0.39,0.16,0.79,0.47,1.18,0.47c1.63,0,3.27-0.11,4.9-0.15c0.48-0.01,0.97,0.11,1.45,0.27
		c-1.41,0.94-5.94,1.14-7.62,0.44c-0.26-0.11-0.44-0.39-0.65-0.6c0.24-0.25,0.48-0.51,0.72-0.76
		C15.41,17.81,15.42,17.91,15.43,18.02z"/>
	<path class="st9" d="M27.27,23.28c-0.53,0.38-1.01,0.94-1.6,1.11c-2.76,0.81-5.6,0.83-8.45,0.64c-0.69-0.05-1.37-0.17-2.04-0.34
		C19.27,24.74,23.36,24.91,27.27,23.28C27.26,23.28,27.27,23.28,27.27,23.28z"/>
	<path class="st10" d="M24.68,15.21c1.1-0.48,2.07-0.25,2.55,0.52c0.46,0.76,0.22,1.71-0.72,2.38c-0.6,0.42-1.29,0.71-1.94,1.06
		c-0.04-0.07-0.08-0.14-0.12-0.2c0.39-0.31,0.88-0.54,1.13-0.93c0.37-0.57,0.84-1.26,0.79-1.87C26.31,15.32,25.44,15.2,24.68,15.21z
		"/>
	<polygon class="st9" points="27.26,23.28 27.29,23.26 27.27,23.28 	"/>
</g>
</svg>
