<?xml version="1.0" encoding="utf-8"?>
<svg version="1.1" id="Layer_1" xmlns="http://www.w3.org/2000/svg" xmlns:xlink="http://www.w3.org/1999/xlink" x="0px" y="0px"
	 viewBox="0 0 38 38" style="enable-background:new 0 0 38 38;" xml:space="preserve">
<style type="text/css">
	.st0{fill:#FFD600;}
	.st1{fill:#000001;}
</style>
<path class="st0" d="M0,38V0h38v38H0z"/>
<path class="st1" d="M24.8,28.4c0.7,1.2,1.5,2.3,3.2,2.3c1.4,0,2.2-0.7,2.2-1.7c0-1.2-0.8-1.6-2.3-2.3L27,26.5
	c-2.5-1-4.1-2.3-4.1-5.1c0-2.5,1.9-4.5,5-4.5c2.2,0,3.7,0.8,4.8,2.7l-2.7,1.7c-0.6-1-1.2-1.5-2.2-1.5c-1,0-1.6,0.6-1.6,1.5
	c0,1,0.6,1.4,2.1,2.1l0.9,0.4c2.9,1.2,4.5,2.5,4.5,5.3c0,3.1-2.4,4.7-5.6,4.7c-3.2,0-5-1.6-6-3.6L24.8,28.4z M12.6,28.5
	c0.5,1,1.3,1.7,2.5,1.7c1.1,0,1.8-0.4,1.8-2.2V16.9h3.5v11.7c0,3.6-2.1,5.2-5.1,5.2c-2.7,0-4.7-1.8-5.5-3.6L12.6,28.5z"/>
</svg>
