<?xml version="1.0" encoding="utf-8"?>
<svg version="1.1" id="Layer_1" xmlns="http://www.w3.org/2000/svg" xmlns:xlink="http://www.w3.org/1999/xlink" x="0px" y="0px"
	 viewBox="0 0 38 38" style="enable-background:new 0 0 38 38;" xml:space="preserve">
<style type="text/css">
	.st0{fill:#FF2D20;}
</style>
<g>
	<path class="st0" d="M1.84,5.68C1.91,5.43,2.11,5.3,2.32,5.18c2.14-1.23,4.28-2.46,6.42-3.7c0.25-0.15,0.47-0.15,0.73-0.01
		c2.18,1.26,4.37,2.52,6.55,3.77c0.25,0.14,0.35,0.34,0.35,0.62c0,4.68,0,9.36,0,14.04c0,0.06,0,0.12,0,0.21
		c0.06-0.03,0.1-0.05,0.14-0.07c1.78-1.02,3.56-2.05,5.34-3.07c0.1-0.06,0.14-0.12,0.14-0.23c0-2.35,0-4.71-0.01-7.06
		c0-0.31,0.12-0.51,0.38-0.66c2.18-1.25,4.36-2.51,6.54-3.76c0.24-0.14,0.46-0.13,0.69,0c2.17,1.25,4.35,2.51,6.53,3.76
		c0.27,0.15,0.39,0.36,0.39,0.67c-0.01,2.48-0.01,4.95,0,7.43c0,0.29-0.11,0.48-0.36,0.62c-2.08,1.19-4.15,2.39-6.22,3.58
		c-0.1,0.06-0.13,0.12-0.13,0.23c0,2.36,0,4.72,0.01,7.08c0,0.3-0.11,0.49-0.37,0.64c-4.42,2.54-8.83,5.08-13.24,7.62
		c-0.25,0.14-0.47,0.14-0.72,0c-4.41-2.54-8.82-5.08-13.23-7.62c-0.19-0.11-0.32-0.25-0.39-0.45C1.84,21.11,1.84,13.4,1.84,5.68z
		 M15.27,35.5c0-0.07,0-0.13,0-0.18c0-2.03,0-4.06,0-6.09c0-0.13-0.05-0.2-0.16-0.26c-2.05-1.15-4.09-2.32-6.14-3.47
		c-0.29-0.16-0.42-0.38-0.42-0.71c0.01-4.89,0-9.79,0-14.68c0-0.09,0-0.17-0.1-0.22c-1.8-1.03-3.59-2.06-5.38-3.09
		C3.04,6.77,3,6.76,2.95,6.73c0,0.07,0,0.11,0,0.16c0,7.13,0,14.26,0,21.39c0,0.1,0.03,0.16,0.12,0.21
		c4.01,2.31,8.03,4.62,12.04,6.93C15.16,35.44,15.2,35.47,15.27,35.5z M28.68,22.04c-0.06,0.03-0.1,0.05-0.14,0.07
		c-4.02,2.29-8.03,4.59-12.05,6.88c-0.09,0.05-0.12,0.11-0.12,0.21c0,2.04,0,4.09,0,6.13c0,0.05,0,0.1,0,0.17
		c0.07-0.04,0.12-0.06,0.16-0.09c4-2.3,8.01-4.61,12.02-6.91c0.1-0.06,0.14-0.12,0.14-0.23c0-2.02,0-4.04,0-6.07
		C28.68,22.16,28.68,22.11,28.68,22.04z M10.23,24.94c0.05,0.03,0.08,0.05,0.11,0.06c1.79,1.01,3.57,2.02,5.36,3.03
		c0.09,0.05,0.16,0.06,0.26,0c4.01-2.29,8.02-4.58,12.02-6.87c0.05-0.03,0.09-0.06,0.15-0.09c-0.05-0.03-0.09-0.06-0.13-0.08
		c-1.77-1.02-3.53-2.03-5.3-3.05c-0.12-0.07-0.21-0.07-0.33,0c-3.85,2.22-7.7,4.44-11.55,6.65C10.62,24.71,10.44,24.82,10.23,24.94z
		 M9.66,23.98c0.07-0.03,0.11-0.06,0.15-0.08c1.77-1.02,3.55-2.04,5.32-3.06c0.09-0.05,0.13-0.11,0.13-0.22c0-4.58,0-9.15,0-13.73
		c0-0.05,0-0.1,0-0.17c-0.07,0.04-0.12,0.06-0.16,0.09c-1.78,1.02-3.56,2.05-5.34,3.07C9.68,9.93,9.66,10,9.66,10.09
		c0,4.58,0,9.15,0,13.73C9.66,23.86,9.66,23.91,9.66,23.98z M3.51,5.77c0.04,0.03,0.06,0.04,0.08,0.05C5.4,6.86,7.21,7.9,9.02,8.94
		c0.07,0.04,0.12,0.03,0.18,0c1.79-1.03,3.59-2.07,5.38-3.1c0.04-0.02,0.07-0.05,0.12-0.08c-0.05-0.03-0.07-0.05-0.1-0.06
		c-1.8-1.03-3.59-2.07-5.39-3.11C9.13,2.55,9.07,2.56,8.99,2.61c-1.73,1-3.45,1.99-5.18,2.98C3.72,5.64,3.63,5.7,3.51,5.77z
		 M23.64,9.56c0.06,0.04,0.1,0.06,0.14,0.08c1.79,1.03,3.57,2.06,5.36,3.09c0.08,0.05,0.14,0.04,0.22-0.01
		c1.79-1.03,3.58-2.06,5.37-3.09c0.03-0.02,0.06-0.04,0.11-0.07c-0.06-0.04-0.1-0.06-0.14-0.09c-1.77-1.02-3.54-2.04-5.31-3.06
		c-0.1-0.06-0.18-0.06-0.28,0c-1.45,0.84-2.9,1.67-4.35,2.51C24.38,9.13,24.02,9.34,23.64,9.56z M35.39,10.52
		c-0.07,0.04-0.12,0.06-0.17,0.09c-1.77,1.02-3.54,2.04-5.31,3.05c-0.09,0.05-0.13,0.11-0.13,0.22c0,2.02,0,4.04,0,6.06
		c0,0.05,0,0.1,0,0.17c0.07-0.03,0.11-0.05,0.15-0.08c1.77-1.02,3.55-2.04,5.32-3.06c0.1-0.06,0.13-0.12,0.13-0.23
		c0-2.02,0-4.03,0-6.05C35.39,10.65,35.39,10.6,35.39,10.52z M23.08,10.52c0,0.07,0,0.1,0,0.14c0,2.04,0,4.08,0,6.12
		c0,0.1,0.04,0.15,0.13,0.2c1.78,1.02,3.56,2.05,5.33,3.07c0.04,0.02,0.08,0.04,0.15,0.08c0-0.07,0-0.11,0-0.16
		c0-2.03,0-4.05,0-6.08c0-0.11-0.04-0.17-0.13-0.22c-1.76-1.01-3.52-2.03-5.29-3.04C23.21,10.59,23.16,10.56,23.08,10.52z"/>
</g>
</svg>
