<?xml version="1.0" encoding="utf-8"?>
<svg version="1.1" id="Layer_1" xmlns="http://www.w3.org/2000/svg" xmlns:xlink="http://www.w3.org/1999/xlink" x="0px" y="0px"
	 viewBox="0 0 38 38" style="enable-background:new 0 0 38 38;" xml:space="preserve">
<style type="text/css">
	.st0{fill:#00748E;}
	.st1{fill:#01758F;}
	.st2{fill:#F19011;}
	.st3{fill:#1F859C;}
	.st4{fill:#F29B28;}
	.st5{fill:#F39D2D;}
	.st6{fill:#F39E2E;}
	.st7{fill:#F29822;}
	.st8{fill:#4398AC;}
	.st9{fill:#F19112;}
	.st10{fill:#5BA6B6;}
	.st11{fill:#FADCB5;}
	.st12{fill:#F1951B;}
</style>
<g>
	<path class="st0" d="M7.82,20.32c-0.61,1.93-1.24,3.85-1.83,5.78c-0.14,0.44-0.3,0.63-0.82,0.64c-0.51,0-0.59-0.26-0.7-0.62
		c-0.56-1.8-1.13-3.59-1.7-5.38c-0.05-0.15-0.09-0.29-0.19-0.43c-0.22,1.91-0.28,3.82-0.33,5.73c-0.01,0.22,0.14,0.56-0.14,0.63
		c-0.34,0.09-0.72,0.05-1.07,0.01c-0.16-0.02-0.1-0.24-0.1-0.37c0.07-2.55,0.27-5.08,0.55-7.61c0.04-0.35,0.16-0.46,0.52-0.46
		c1.3-0.01,1.3-0.02,1.71,1.2c0.53,1.61,1.06,3.22,1.64,4.99c0.36-1.09,0.68-2.03,1-2.98c0.3-0.89,0.6-1.78,0.87-2.69
		c0.11-0.38,0.28-0.54,0.71-0.53c1.19,0.03,1.19,0,1.31,1.19c0.24,2.25,0.41,4.51,0.51,6.77c0.02,0.43-0.11,0.63-0.52,0.51
		c-0.31-0.09-0.88,0.37-0.92-0.36c-0.1-1.72-0.18-3.44-0.27-5.16c-0.1-0.22-0.03-0.45-0.05-0.67C7.99,20.39,8.01,20.26,7.82,20.32z"
		/>
	<path class="st1" d="M26.81,11.9c0.42,1.13,1,2.17,1.61,3.19c-0.76-0.38-1.18-1.03-1.54-1.77c-0.25,0.2-0.16,0.46-0.22,0.67
		c-0.08,0.29-0.12,0.6-0.49,0.69c-0.37,0.09-0.63-0.1-0.83-0.37c-0.68-0.93-0.87-2.02-0.59-3.09c0.24-0.93,0.15-1.65-0.31-2.5
		c-0.57-1.06-0.85-2.27-1.68-3.22c-0.29-0.33-0.33-0.78-0.03-1.17c0.29-0.37,0.7-0.45,1.08-0.27c1.22,0.57,2.57,0.84,3.76,1.4
		c2.06,0.96,3.6,2.58,4.47,4.75c0.13,0.32,0.29,0.62,0.41,0.94c0.45,1.14,0.99,2.13,2.3,2.55c0.69,0.22,1.25,0.79,1.79,1.3
		c0.19,0.18,0.52,0.4,0.43,0.66c-0.07,0.21-0.45,0.21-0.7,0.23c-0.46,0.04-0.89,0.16-1.47,0.33c0.94,0.75,1.99,1.21,2.47,2.29
		c-0.95-0.8-2.29-0.98-3.05-2.06c-0.36-0.51-0.32-0.61,0.29-0.81c0.55-0.19,1.13-0.24,1.73-0.29c-0.77-0.64-1.52-1.3-2.52-1.54
		c-0.65-0.16-1.03-0.54-1.29-1.13c-0.33-0.77-0.71-1.53-1.04-2.3C30.59,8.44,29.24,7,27.38,6.01c-0.46-0.25-0.95-0.42-1.49-0.42
		c-0.41,0-0.77-0.12-1.09-0.4c-0.33-0.29-0.76-0.43-1.18-0.57c-0.18-0.06-0.36-0.09-0.49,0.08c-0.12,0.15-0.08,0.34,0.02,0.45
		c0.98,1.09,1.23,2.55,1.95,3.75c0.42,0.69,0.46,1.19,0.22,1.91c-0.33,0.98-0.23,1.98,0.23,2.93c0.07,0.14,0.15,0.33,0.33,0.31
		c0.23-0.03,0.13-0.26,0.15-0.39C26.14,13.01,26.19,12.36,26.81,11.9z"/>
	<path class="st2" d="M19.56,18.15c0.55-0.03,1.1,0.14,1.63,0.38c0.27,0.12,0.43,0.24,0.26,0.59c-0.14,0.29-0.25,0.38-0.58,0.26
		c-0.37-0.13-0.78-0.2-1.18-0.22c-0.66-0.05-1.2,0.28-1.37,0.77c-0.17,0.5,0.04,1.03,0.64,1.42c0.55,0.36,1.14,0.67,1.72,0.99
		c1.19,0.68,1.55,1.37,1.35,2.54c-0.17,0.95-0.95,1.69-2.09,1.9c-1,0.19-1.95,0-2.84-0.5c-0.3-0.17-0.3-0.35-0.16-0.63
		c0.14-0.29,0.3-0.3,0.57-0.18c0.59,0.27,1.22,0.4,1.87,0.29c0.56-0.09,0.99-0.35,1.16-0.91c0.17-0.59-0.12-1.03-0.58-1.34
		c-0.53-0.36-1.1-0.66-1.65-0.98c-1.28-0.74-1.7-1.57-1.37-2.74C17.24,18.73,18.16,18.14,19.56,18.15z"/>
	<path class="st0" d="M13.33,25.57c0.57-1.56,0.89-2.99,1.11-4.45c0.09-0.56,0.8-0.91,1.31-0.64c0.15,0.08,0.12,0.19,0.09,0.3
		c-0.43,2.1-0.9,4.19-1.96,6.09c-0.3,0.55-0.66,1.05-1.14,1.46c-0.58,0.48-1.21,0.75-1.99,0.57c-0.35-0.08-0.43-0.26-0.42-0.59
		c0-0.42,0.29-0.29,0.5-0.3c1.18-0.04,1.74-0.74,1.4-1.87c-0.5-1.69-1.05-3.36-1.6-5.03c-0.15-0.45-0.17-0.64,0.43-0.66
		c0.65-0.03,0.9,0.21,1.05,0.8C12.47,22.63,13.01,23.97,13.33,25.57z"/>
	<path class="st2" d="M32.03,21.96c0,1.08,0.01,2.16-0.01,3.25c-0.01,0.34,0.1,0.46,0.45,0.45c0.6-0.02,1.2,0.02,1.8-0.01
		c0.44-0.02,0.42,0.24,0.42,0.54c-0.01,0.28,0.06,0.55-0.4,0.54c-1.08-0.03-2.16-0.02-3.25,0c-0.28,0-0.38-0.09-0.38-0.38
		c0.01-2.56,0.01-5.13,0-7.69c0-0.33,0.13-0.42,0.43-0.4c0.18,0.01,0.36,0.02,0.54,0c0.32-0.03,0.41,0.1,0.41,0.41
		C32.03,19.76,32.03,20.86,32.03,21.96z"/>
	<path class="st3" d="M25.87,6.51c0.29,0.06,0.48,0.23,0.51,0.55c0.01,0.16-0.05,0.42-0.18,0.38c-0.3-0.11-0.37-0.48-0.55-0.73
		C25.56,6.59,25.72,6.52,25.87,6.51z"/>
	<path class="st4" d="M37.28,25.72c0.09-0.07,0.22-0.09,0.25,0.02c0.07,0.32,0.11,0.64-0.05,0.96c-0.25-0.1-0.11-0.35-0.25-0.47
		c-0.06,0.04-0.12,0.04-0.18-0.02c0.04-0.09,0.08-0.18,0.11-0.27C37.33,25.93,37.29,25.82,37.28,25.72z"/>
	<path class="st5" d="M36.85,26.09c0.03,0.04,0.07,0.08,0.1,0.12c-0.02,0.08-0.07,0.14-0.13,0.19c-0.13,0.06-0.16,0.2-0.25,0.29
		c-0.41-0.28-0.2-0.63-0.11-0.96C36.63,25.82,36.72,25.98,36.85,26.09z"/>
	<path class="st6" d="M35.9,25.88c-0.06,0.26,0.05,0.54-0.1,0.83c-0.32-0.24-0.09-0.58-0.19-0.84C35.71,25.79,35.8,25.79,35.9,25.88
		z"/>
	<path class="st2" d="M35.9,25.88c-0.1,0-0.2-0.01-0.3-0.01c-0.08-0.02-0.27-0.03-0.18-0.12c0.19-0.18,0.51-0.18,0.68-0.01
		C36.23,25.87,35.98,25.84,35.9,25.88z"/>
	<path class="st7" d="M36.82,26.37c0.05-0.05,0.1-0.1,0.14-0.15c0.03,0,0.06,0,0.09,0c0.06,0.01,0.12,0.01,0.18,0.02
		c-0.1,0.15,0.05,0.6-0.41,0.35C36.76,26.52,36.76,26.44,36.82,26.37z"/>
	<path class="st8" d="M7.82,20.32c0.04-0.25,0.17-0.21,0.2-0.02c0.05,0.29,0.02,0.59,0.03,0.88C7.86,20.92,8.08,20.56,7.82,20.32z"
		/>
	<path class="st9" d="M36.85,26.09c-0.17-0.07-0.37-0.12-0.39-0.36C36.85,25.58,36.77,25.92,36.85,26.09z"/>
	<path class="st10" d="M29.05,15.72c-0.3-0.1-0.39-0.25-0.54-0.45C28.81,15.3,28.89,15.47,29.05,15.72z"/>
	<path class="st11" d="M36.82,26.37c0,0.07,0.01,0.14,0.01,0.22c-0.08,0.04-0.16,0.07-0.24,0.11C36.67,26.59,36.4,26.23,36.82,26.37
		z"/>
	<path class="st12" d="M37.28,25.72c0.09,0.05,0.16,0.12,0.1,0.22c-0.06,0.1-0.14,0.1-0.21,0C37.17,25.85,37.18,25.76,37.28,25.72z"
		/>
	<path class="st2" d="M28.92,26.55c-0.73-0.36-0.73-0.36-0.28-0.99c0.23-0.33,0.41-0.69,0.52-1.08c0.38-1.28,0.41-2.57,0.12-3.86
		c-0.35-1.54-1.25-2.36-2.63-2.48c-1.79-0.16-2.94,0.48-3.59,1.99c-0.35,0.81-0.41,1.66-0.43,2.53c-0.03,0.5,0.05,1,0.13,1.49
		c0.33,1.85,1.4,2.82,3.23,2.66c0.92-0.08,1.62,0.17,2.33,0.65c0.1,0.07,0.21,0.11,0.31,0.19c0.3,0.23,0.45,0.16,0.69-0.15
		C29.83,26.86,29.33,26.75,28.92,26.55z M27.68,24.66c-0.32,0.76-0.84,1.11-1.62,1.11c-0.82,0-1.37-0.35-1.63-1.16
		c-0.45-1.39-0.49-2.8-0.04-4.19c0.27-0.83,0.86-1.23,1.66-1.23c0.81,0,1.36,0.4,1.66,1.22c0.24,0.66,0.28,1.36,0.31,2.04
		c0,0.05,0,0.1,0,0.14C28,23.31,27.95,24,27.68,24.66z"/>
</g>
</svg>
