<?xml version="1.0" encoding="utf-8"?>
<svg version="1.1" id="Layer_1" xmlns="http://www.w3.org/2000/svg" xmlns:xlink="http://www.w3.org/1999/xlink" x="0px" y="0px"
	 viewBox="0 0 48 48" style="enable-background:new 0 0 48 48;" xml:space="preserve">
<style type="text/css">
	.st0{fill:#8FC53F;}
	.st1{fill:#388E3C;}
	.st2{fill:#37474F;}
	.st3{fill:#2E7D32;}
	.st4{fill:#4CAF50;}
</style>
<path class="st0" d="M21.7,2.1L6.2,11.1c-1.4,0.8-2.3,2.3-2.3,4v17.9c0,1.6,0.9,3.2,2.3,4l15.5,8.9c1.4,0.8,3.2,0.8,4.6,0l15.5-8.9
	c1.4-0.8,2.3-2.3,2.3-4V15.1c0-1.6-0.9-3.2-2.3-4L26.3,2.1C24.9,1.3,23.1,1.3,21.7,2.1z"/>
<g>
	<path class="st1" d="M18.9,20.3l-3.6,2c-0.1,0.1-0.2,0.2-0.2,0.4v3.9c0,0.1,0.1,0.3,0.2,0.4l3.6,2c0.1,0.1,0.3,0.1,0.4,0l3.6-2
		c0.1-0.1,0.2-0.2,0.2-0.4v-3.9c0-0.1-0.1-0.3-0.2-0.4l-3.6-2c-0.1,0-0.1-0.1-0.2-0.1C19.1,20.2,19,20.2,18.9,20.3 M37.3,23.8
		l-0.6,0.3c0,0,0,0,0,0.1v0.7c0,0,0,0,0,0.1l0.6,0.3c0,0,0,0,0.1,0l0.6-0.3c0,0,0,0,0-0.1v-0.7c0,0,0,0,0-0.1L37.3,23.8
		C37.3,23.8,37.3,23.8,37.3,23.8C37.3,23.8,37.3,23.8,37.3,23.8"/>
	<path class="st2" d="M32.4,16.1l-1.7-1c-0.1,0-0.1,0-0.2,0c-0.1,0-0.1,0.1-0.1,0.2l0,5.8l-1.6-0.9c-0.1,0-0.1-0.1-0.2-0.1
		c-0.1,0-0.1,0-0.2,0.1h0l-3.6,2c-0.1,0.1-0.2,0.2-0.2,0.4v3.9c0,0.1,0.1,0.3,0.2,0.4l3.6,2c0.1,0.1,0.3,0.1,0.4,0l3.6-2
		c0.1-0.1,0.2-0.2,0.2-0.4V16.4C32.6,16.3,32.5,16.2,32.4,16.1z M30.3,25.6l-1.6,0.9c-0.1,0-0.1,0-0.2,0l-1.6-0.9
		c-0.1,0-0.1-0.1-0.1-0.2v-1.8c0-0.1,0-0.1,0.1-0.2l1.6-0.9h0c0,0,0.1,0,0.1,0s0.1,0,0.1,0l1.6,0.9c0.1,0,0.1,0.1,0.1,0.2v1.8
		C30.4,25.5,30.4,25.6,30.3,25.6z"/>
	<path class="st3" d="M18.9,20.3l-3.8,6.3c0,0.1,0.1,0.3,0.2,0.4l3.6,2c0.1,0.1,0.3,0.1,0.4,0l3.8-6.3c0-0.1-0.1-0.3-0.2-0.4l-3.6-2
		c-0.1,0-0.1-0.1-0.2-0.1C19.1,20.2,19,20.2,18.9,20.3"/>
	<path class="st4" d="M18.9,20.3l-3.6,2c-0.1,0.1-0.2,0.2-0.2,0.4l3.8,6.3c0.1,0.1,0.3,0.1,0.4,0l3.6-2c0.1-0.1,0.2-0.2,0.2-0.4
		l-3.8-6.3c-0.1,0-0.1-0.1-0.2-0.1C19.1,20.2,19,20.2,18.9,20.3"/>
	<path class="st2" d="M41.1,22.2l-3.6-2c-0.1,0-0.1-0.1-0.2-0.1c-0.1,0-0.1,0-0.2,0.1h0l-3.6,2c-0.1,0.1-0.2,0.2-0.2,0.4v3.9
		c0,0.2,0.1,0.3,0.2,0.4l3.6,2c0.1,0.1,0.3,0.1,0.4,0l1.6-0.9c0.2-0.1,0.1-0.3,0-0.4l-3.6-2c-0.1,0-0.1-0.1-0.1-0.2v-1.8
		c0-0.1,0-0.1,0.1-0.2l1.6-0.9h0c0,0,0.1,0,0.1,0c0,0,0.1,0,0.1,0l1.6,0.9c0.1,0,0.1,0.1,0.1,0.2v1.5c0,0.1,0,0.1,0.1,0.2
		c0.1,0,0.1,0,0.2,0l1.7-1c0.1-0.1,0.2-0.2,0.2-0.3v-1.4C41.3,22.4,41.2,22.3,41.1,22.2z M14.2,22.2l-3.6-2c-0.1,0-0.1-0.1-0.2-0.1
		c-0.1,0-0.1,0-0.2,0.1h0l-3.6,2c-0.1,0.1-0.2,0.2-0.2,0.4V28c0,0.1,0,0.1,0.1,0.2c0.1,0,0.1,0,0.2,0l1.7-1c0.1-0.1,0.2-0.2,0.2-0.3
		v-3.2c0-0.1,0-0.1,0.1-0.2l1.6-0.9l0,0c0,0,0.1,0,0.1,0c0,0,0.1,0,0.1,0l1.6,0.9c0.1,0,0.1,0.1,0.1,0.2v3.2c0,0.1,0.1,0.2,0.2,0.3
		l1.7,1c0.1,0,0.1,0,0.2,0c0.1,0,0.1-0.1,0.1-0.2v-5.4C14.4,22.4,14.3,22.3,14.2,22.2z"/>
</g>
</svg>
