<?xml version="1.0" encoding="utf-8"?>
<svg version="1.1" id="Layer_1" xmlns="http://www.w3.org/2000/svg" xmlns:xlink="http://www.w3.org/1999/xlink" x="0px" y="0px"
	 viewBox="0 0 38 38" style="enable-background:new 0 0 38 38;" xml:space="preserve">
<style type="text/css">
	.st0{fill:url(#SVGID_1_);}
	.st1{fill:#777BB3;}
	.st2{fill:#FFFFFF;}
</style>
<g>
	<linearGradient id="SVGID_1_" gradientUnits="userSpaceOnUse" x1="1.1875" y1="18.2666" x2="36.8125" y2="18.2666">
		<stop  offset="0" style="stop-color:#9CA0C8"/>
		<stop  offset="0.3436" style="stop-color:#8286B5"/>
		<stop  offset="1" style="stop-color:#484C89"/>
	</linearGradient>
	<path class="st0" d="M18.43,8.66c4.9-0.05,8.98,0.64,12.81,2.55c1.34,0.67,2.56,1.51,3.61,2.6c2.58,2.67,2.63,5.96,0.1,8.69
		c-1.78,1.92-4.03,3.09-6.45,3.85c-6.89,2.18-13.75,2.07-20.51-0.58c-1.7-0.67-3.28-1.61-4.61-2.92c-3.05-3-2.9-6.82,0.36-9.57
		c2.39-2.01,5.17-3.12,8.14-3.83C14.26,8.88,16.67,8.62,18.43,8.66z"/>
	<path class="st1" d="M18.45,9.2c4.76-0.04,8.72,0.61,12.44,2.41c1.3,0.63,2.48,1.42,3.5,2.45c2.5,2.52,2.55,5.62,0.09,8.2
		c-1.73,1.81-3.91,2.91-6.26,3.64c-6.69,2.06-13.35,1.96-19.92-0.55c-1.65-0.63-3.18-1.52-4.47-2.76c-2.96-2.83-2.81-6.43,0.35-9.03
		c2.32-1.9,5.02-2.95,7.9-3.61C14.39,9.41,16.74,9.16,18.45,9.2z M15.39,19.36c0.06,0.13,0.07,0.14,0.07,0.16
		c-0.06,0.3-0.12,0.61-0.17,0.91c-0.11,0.65,0.01,0.82,0.66,0.83c0.41,0.01,0.81-0.02,1.22,0.01c0.53,0.04,0.77-0.21,0.85-0.72
		c0.19-1.09,0.39-2.17,0.62-3.25c0.32-1.48-0.06-1.24,1.61-1.25c0.61,0,0.71,0.13,0.59,0.75c-0.22,1.22-0.47,2.43-0.7,3.65
		c-0.12,0.66-0.01,0.8,0.67,0.81c0.59,0.01,1.18,0,1.81,0c-0.12,0.64-0.2,1.19-0.32,1.74c-0.1,0.47,0.09,0.65,0.54,0.65
		c0.52,0,1.05-0.01,1.57,0c0.37,0.01,0.57-0.16,0.62-0.53c0.06-0.44,0.18-0.87,0.25-1.31c0.06-0.39,0.23-0.56,0.65-0.55
		c0.58,0.02,1.16-0.02,1.74-0.07c2.04-0.16,3.66-1.7,3.94-3.71c0.31-2.18-0.84-3.57-3.06-3.63c-1.3-0.04-2.59,0-3.89-0.02
		c-0.43-0.01-0.64,0.18-0.7,0.59c-0.05,0.31-0.12,0.61-0.21,1.02c-0.55-1.03-0.89-1.34-1.85-1.5c-0.61-0.1-1.23-0.08-1.85-0.11
		c-0.22-0.01-0.44-0.03-0.72-0.05c0.12-0.62,0.22-1.17,0.32-1.72c0.08-0.44-0.08-0.67-0.55-0.66c-0.39,0.01-0.77,0-1.16,0
		c-0.91,0-0.9,0-1.07,0.9c-0.22,1.17-0.46,2.33-0.73,3.68c-0.51-1.36-1.42-2.03-2.64-2.1c-1.49-0.09-2.98-0.05-4.47-0.03
		c-0.17,0-0.46,0.24-0.5,0.42c-0.6,2.92-1.16,5.85-1.73,8.77c-0.08,0.39,0.08,0.6,0.48,0.6c0.17,0,0.35,0.01,0.52,0
		c1.99-0.02,1.57,0.22,1.93-1.61c0.13-0.65,0.38-0.8,0.99-0.78C12.53,21.32,14.23,21.07,15.39,19.36z"/>
	<path class="st2" d="M15.39,19.36c-1.16,1.71-2.87,1.95-4.66,1.9c-0.61-0.02-0.86,0.14-0.99,0.78c-0.36,1.83,0.06,1.59-1.93,1.61
		c-0.17,0-0.35,0-0.52,0c-0.41-0.01-0.56-0.22-0.48-0.6c0.57-2.92,1.14-5.85,1.73-8.77c0.04-0.17,0.33-0.41,0.5-0.42
		c1.49-0.02,2.98-0.06,4.47,0.03c1.23,0.07,2.13,0.74,2.64,2.1c0.27-1.35,0.5-2.51,0.73-3.68c0.17-0.9,0.17-0.9,1.07-0.9
		c0.39,0,0.77,0.01,1.16,0c0.47-0.01,0.63,0.22,0.55,0.66c-0.1,0.55-0.2,1.09-0.32,1.72c0.28,0.02,0.5,0.04,0.72,0.05
		c0.62,0.04,1.24,0.01,1.85,0.11c0.96,0.16,1.31,0.47,1.85,1.5c0.08-0.41,0.16-0.71,0.21-1.02c0.06-0.41,0.27-0.6,0.7-0.59
		c1.3,0.02,2.6-0.02,3.89,0.02c2.22,0.06,3.37,1.45,3.06,3.63c-0.28,2.02-1.91,3.55-3.94,3.71c-0.58,0.05-1.16,0.08-1.74,0.07
		c-0.42-0.01-0.59,0.16-0.65,0.55c-0.07,0.44-0.19,0.87-0.25,1.31c-0.05,0.38-0.25,0.54-0.62,0.53c-0.52-0.01-1.05,0-1.57,0
		c-0.45,0-0.64-0.18-0.54-0.65c0.12-0.55,0.2-1.1,0.32-1.74c-0.64,0-1.23,0.01-1.81,0c-0.67-0.01-0.79-0.15-0.67-0.81
		c0.23-1.22,0.48-2.43,0.7-3.65c0.11-0.62,0.02-0.75-0.59-0.75c-1.67,0.01-1.29-0.23-1.61,1.25c-0.23,1.08-0.43,2.16-0.62,3.25
		c-0.09,0.51-0.32,0.75-0.85,0.72c-0.4-0.03-0.81,0-1.22-0.01c-0.65-0.02-0.77-0.18-0.66-0.83c0.05-0.3,0.11-0.61,0.17-0.91
		C15.47,19.51,15.45,19.49,15.39,19.36z M7.11,23.32c0.59,0,1.11-0.01,1.62,0.01c0.35,0.01,0.47-0.14,0.52-0.47
		c0.07-0.5,0.22-0.98,0.28-1.48c0.05-0.4,0.25-0.5,0.62-0.49c0.6,0.02,1.2,0.01,1.8-0.01c1.93-0.06,3.46-1.39,3.8-3.29
		c0.38-2.11-0.65-3.37-2.81-3.41c-1.16-0.03-2.32,0.02-3.48-0.02c-0.48-0.02-0.63,0.18-0.71,0.6c-0.27,1.44-0.56,2.88-0.84,4.33
		C7.66,20.46,7.39,21.85,7.11,23.32z M22.61,23.32c0.61,0,1.11-0.02,1.61,0.01c0.34,0.02,0.48-0.12,0.53-0.45
		c0.08-0.52,0.22-1.02,0.29-1.54c0.05-0.34,0.21-0.46,0.54-0.45c0.68,0.01,1.36,0.01,2.03-0.02c2.32-0.12,4.09-2.36,3.7-4.64
		c-0.21-1.19-1.19-1.99-2.6-2.04c-1.28-0.04-2.55,0-3.83-0.03c-0.4-0.01-0.52,0.15-0.59,0.52c-0.33,1.77-0.68,3.53-1.02,5.29
		C23.04,21.05,22.84,22.13,22.61,23.32z M19.36,11.77c-0.72,0-1.35,0-2.03,0c-0.59,3.03-1.18,6.04-1.78,9.12
		c0.56,0,1.04-0.03,1.52,0.01c0.44,0.04,0.57-0.17,0.64-0.55c0.18-0.99,0.38-1.97,0.57-2.96c0.36-1.86,0.35-1.87,2.24-1.66
		c0.58,0.06,0.8,0.31,0.71,0.89c-0.07,0.46-0.17,0.91-0.26,1.37c-0.18,0.94-0.36,1.88-0.55,2.9c0.61,0,1.13-0.01,1.64,0.01
		c0.32,0.01,0.45-0.12,0.51-0.42c0.26-1.39,0.55-2.77,0.79-4.16c0.18-1.06-0.31-1.82-1.36-2c-0.77-0.13-1.58-0.11-2.37-0.15
		c-0.22-0.01-0.44,0-0.71,0C19.08,13.32,19.22,12.58,19.36,11.77z"/>
	<path d="M7.11,23.32c0.28-1.47,0.54-2.86,0.81-4.24c0.28-1.44,0.57-2.88,0.84-4.33c0.08-0.42,0.23-0.62,0.71-0.6
		c1.16,0.04,2.32,0,3.48,0.02c2.16,0.05,3.18,1.3,2.81,3.41c-0.34,1.9-1.87,3.23-3.8,3.29c-0.6,0.02-1.2,0.03-1.8,0.01
		c-0.37-0.01-0.57,0.09-0.62,0.49c-0.06,0.5-0.21,0.98-0.28,1.48c-0.05,0.32-0.17,0.48-0.52,0.47C8.22,23.31,7.7,23.32,7.11,23.32z
		 M9.93,19.4c0.51,0,0.91,0.01,1.31,0c1.58-0.05,2.35-0.67,2.46-2.57c0.04-0.62-0.29-0.99-0.91-1.08c-0.59-0.08-1.19-0.09-1.79-0.09
		c-0.13,0-0.36,0.18-0.38,0.3C10.37,17.08,10.16,18.19,9.93,19.4z"/>
	<path d="M22.61,23.32c0.23-1.19,0.44-2.27,0.65-3.34c0.34-1.76,0.7-3.52,1.02-5.29c0.07-0.37,0.2-0.53,0.59-0.52
		c1.28,0.02,2.55-0.01,3.83,0.03c1.42,0.05,2.4,0.85,2.6,2.04c0.4,2.28-1.38,4.52-3.7,4.64c-0.68,0.04-1.35,0.03-2.03,0.02
		c-0.33,0-0.49,0.11-0.54,0.45c-0.07,0.52-0.22,1.02-0.29,1.54c-0.05,0.33-0.19,0.46-0.53,0.45C23.72,23.3,23.22,23.32,22.61,23.32z
		 M25.43,19.4c0.49,0,0.89,0,1.29,0c1.67-0.02,2.55-0.98,2.47-2.66c-0.02-0.55-0.3-0.9-0.81-0.97c-0.63-0.09-1.27-0.1-1.9-0.11
		c-0.12,0-0.32,0.12-0.34,0.22C25.88,17.03,25.67,18.18,25.43,19.4z"/>
	<path d="M19.36,11.77c-0.15,0.81-0.28,1.55-0.44,2.4c0.28,0,0.5-0.01,0.71,0c0.79,0.04,1.59,0.02,2.37,0.15
		c1.06,0.18,1.54,0.93,1.36,2c-0.24,1.39-0.53,2.77-0.79,4.16c-0.06,0.29-0.19,0.43-0.51,0.42c-0.52-0.02-1.04-0.01-1.64-0.01
		c0.19-1.02,0.37-1.96,0.55-2.9c0.09-0.46,0.19-0.91,0.26-1.37c0.08-0.58-0.13-0.82-0.71-0.89c-1.89-0.21-1.89-0.21-2.24,1.66
		c-0.19,0.99-0.39,1.97-0.57,2.96c-0.07,0.38-0.2,0.59-0.64,0.55c-0.48-0.04-0.96-0.01-1.52-0.01c0.6-3.08,1.19-6.09,1.78-9.12
		C18.01,11.77,18.64,11.77,19.36,11.77z"/>
	<path class="st2" d="M9.93,19.4c0.24-1.21,0.45-2.33,0.69-3.43c0.03-0.13,0.25-0.3,0.38-0.3c0.6,0,1.2,0.01,1.79,0.09
		c0.62,0.08,0.95,0.46,0.91,1.08c-0.11,1.9-0.88,2.52-2.46,2.57C10.84,19.41,10.43,19.4,9.93,19.4z M10.36,18.97
		c1.62,0.41,2.68-0.19,2.93-1.59c0.08-0.44,0.23-1.02-0.3-1.17c-0.63-0.18-1.32-0.11-1.99-0.14c-0.03,0-0.09,0.08-0.1,0.13
		C10.73,17.13,10.54,18.05,10.36,18.97z"/>
	<path class="st2" d="M25.43,19.4c0.24-1.23,0.46-2.38,0.7-3.52c0.02-0.1,0.22-0.22,0.34-0.22c0.64,0.01,1.28,0.02,1.9,0.11
		c0.51,0.07,0.79,0.42,0.81,0.97c0.08,1.68-0.8,2.64-2.47,2.66C26.31,19.41,25.91,19.4,25.43,19.4z M25.84,19.05
		c0.44,0,0.8,0.03,1.15-0.01c1.27-0.14,1.9-0.91,1.86-2.19c-0.01-0.43-0.21-0.71-0.64-0.76c-0.48-0.06-0.96-0.09-1.44-0.08
		c-0.14,0-0.36,0.18-0.39,0.31C26.2,17.2,26.03,18.08,25.84,19.05z"/>
	<path class="st1" d="M10.36,18.97c0.18-0.91,0.36-1.84,0.55-2.76c0.01-0.05,0.07-0.14,0.1-0.13c0.67,0.03,1.36-0.04,1.99,0.14
		c0.53,0.15,0.37,0.73,0.3,1.17C13.04,18.78,11.98,19.37,10.36,18.97z"/>
	<path class="st1" d="M25.84,19.05c0.19-0.97,0.35-1.85,0.55-2.73c0.03-0.13,0.25-0.3,0.39-0.31c0.48-0.01,0.96,0.02,1.44,0.08
		c0.42,0.05,0.62,0.33,0.64,0.76c0.04,1.28-0.6,2.05-1.86,2.19C26.64,19.08,26.28,19.05,25.84,19.05z"/>
</g>
</svg>
