<?xml version="1.0" encoding="utf-8"?>
<svg version="1.1" id="Layer_1" xmlns="http://www.w3.org/2000/svg" xmlns:xlink="http://www.w3.org/1999/xlink" x="0px" y="0px"
	 viewBox="0 0 48 48" style="enable-background:new 0 0 48 48;" xml:space="preserve">
<style type="text/css">
	.st0{fill:#03A9F4;}
	.st1{fill:#020F16;}
</style>
<path class="st0" d="M0,5.3C0,2.4,2.4,0,5.3,0h37.3C45.6,0,48,2.4,48,5.3v37.3c0,2.9-2.4,5.3-5.3,5.3H5.3C2.4,48,0,45.6,0,42.7V5.3z
	"/>
<path class="st1" d="M18.7,17.6H16v5.9h2.6c0.7,0,1.3-0.2,1.7-0.7s0.6-1.2,0.6-2.1c0-0.9-0.2-1.7-0.6-2.3
	C19.9,17.9,19.4,17.6,18.7,17.6z"/>
<path class="st1" d="M4,4v40h40V4H4z M23.2,25.1c-1.1,1.1-2.6,1.6-4.6,1.6H16v6.7h-3.8v-19h6.5c1.9,0,3.4,0.6,4.5,1.7
	s1.7,2.7,1.7,4.5C24.8,22.5,24.3,24,23.2,25.1z M35.6,32.4c-0.9,0.8-2.2,1.1-3.7,1.1c-1,0-1.9-0.2-2.7-0.6s-1.4-1-1.9-1.7
	c-0.4-0.7-0.7-1.5-0.7-2.3h3.5c0,0.6,0.2,1.1,0.4,1.4c0.3,0.3,0.7,0.5,1.4,0.5c1,0,1.5-0.4,1.5-1.3c0-0.3-0.1-0.6-0.4-0.9
	c-0.3-0.3-1-0.6-2-1.1c-1.5-0.6-2.6-1.3-3.1-1.9C27.3,25,27,24.2,27,23.2c0-1.2,0.4-2.3,1.3-3.1c0.9-0.8,2.1-1.2,3.5-1.2
	c1.5,0,2.8,0.4,3.7,1.2c0.9,0.8,1.4,1.9,1.4,3.2h-3.7c0-1.1-0.5-1.7-1.4-1.7c-0.4,0-0.7,0.1-1,0.4s-0.4,0.6-0.4,1
	c0,0.3,0.1,0.6,0.4,0.8c0.3,0.2,0.9,0.6,2,1c1.5,0.6,2.6,1.2,3.2,1.9c0.6,0.7,0.9,1.6,0.9,2.6C37,30.7,36.5,31.7,35.6,32.4z"/>
</svg>
