<?xml version="1.0" encoding="utf-8"?>
<svg version="1.1" id="Layer_1" xmlns="http://www.w3.org/2000/svg" xmlns:xlink="http://www.w3.org/1999/xlink" x="0px" y="0px"
	 viewBox="0 0 38 38" style="enable-background:new 0 0 38 38;" xml:space="preserve">
<style type="text/css">
	.st0{fill:#00D8FF;}
</style>
<g>
	<path class="st0" d="M8.06,25.44c-1.22-0.52-2.49-0.91-3.59-1.58c-1.2-0.73-2.38-1.59-3.32-2.62c-1.31-1.43-1.2-3.1,0.03-4.61
		c1.4-1.72,3.34-2.61,5.36-3.38c0.5-0.19,1-0.34,1.49-0.51C7.86,11.32,7.6,9.94,7.57,8.57C7.55,7.4,7.65,6.18,7.96,5.06
		c0.6-2.18,2.26-3.07,4.46-2.58c2.28,0.5,4.1,1.82,5.83,3.28c0.25,0.21,0.49,0.43,0.68,0.59c1.33-0.96,2.58-1.95,3.93-2.79
		c0.79-0.49,1.71-0.84,2.61-1.08C27.67,1.9,29.25,2.8,30,4.95c0.68,1.97,0.55,3.98,0.24,5.99c-0.09,0.58-0.21,1.16-0.31,1.75
		c1.07,0.43,2.14,0.72,3.08,1.26c1.25,0.71,2.53,1.47,3.56,2.46c1.64,1.57,1.58,3.44,0.07,5.14c-1.51,1.69-3.51,2.6-5.58,3.37
		c-0.33,0.12-0.67,0.23-0.9,0.31c0.12,1.83,0.3,3.59,0.32,5.36c0.01,0.84-0.21,1.71-0.48,2.51c-0.73,2.14-2.35,2.98-4.56,2.45
		c-2.08-0.5-3.77-1.69-5.37-3.04c-0.31-0.27-0.62-0.54-0.99-0.87c-0.31,0.27-0.56,0.55-0.88,0.75c-1.49,0.95-2.91,2.1-4.52,2.78
		c-3.39,1.43-5.82-0.18-6.09-3.86c-0.07-0.97-0.07-1.96,0.01-2.93C7.68,27.4,7.89,26.44,8.06,25.44z M19.04,25.04
		c0-0.01,0-0.03,0-0.04c0.89,0,1.78-0.03,2.67,0.01c0.54,0.02,0.89-0.19,1.15-0.65c0.9-1.6,1.85-3.18,2.71-4.8
		c0.16-0.3,0.17-0.83,0.01-1.12c-0.87-1.62-1.79-3.21-2.77-4.77c-0.21-0.33-0.73-0.62-1.12-0.64c-1.78-0.07-3.56-0.07-5.34,0
		c-0.39,0.01-0.9,0.3-1.13,0.63c-0.72,1.05-1.37,2.15-1.99,3.26c-1.16,2.07-1.15,2.08-0.03,4.13c0.3,0.55,0.61,1.09,0.93,1.62
		c1.41,2.35,1.41,2.34,4.11,2.37C18.5,25.04,18.77,25.04,19.04,25.04z M8.48,14.22c-0.93,0.36-1.92,0.61-2.78,1.1
		c-1.14,0.65-2.28,1.38-3.24,2.28c-0.93,0.87-0.89,1.72-0.1,2.7c1.58,1.96,3.82,2.79,6.11,3.52c0.63-1.59,1.23-3.07,1.81-4.56
		c0.06-0.15,0.06-0.35,0.01-0.49C9.71,17.28,9.11,15.8,8.48,14.22z M9.62,25.82c-0.15,0.81-0.42,1.61-0.42,2.42
		c0.01,1.46,0.05,2.95,0.32,4.39c0.21,1.12,0.95,1.57,2.02,1.46c2.65-0.27,4.54-1.9,6.39-3.55c-1.03-1.3-1.96-2.49-2.91-3.67
		c-0.15-0.19-0.4-0.38-0.63-0.42C12.84,26.22,11.29,26.03,9.62,25.82z M20.22,30.52c1.54,1.44,3.14,2.74,5.17,3.38
		c1.85,0.58,2.92,0.05,3.28-1.85c0.25-1.32,0.2-2.71,0.17-4.06c-0.02-0.77-0.25-1.54-0.38-2.24c-1.64,0.23-3.11,0.41-4.57,0.65
		c-0.31,0.05-0.66,0.26-0.86,0.51C22.09,28.06,21.2,29.24,20.22,30.52z M20.18,7.53c0.99,1.26,1.93,2.48,2.89,3.68
		c0.12,0.15,0.3,0.33,0.47,0.36c1.59,0.25,3.19,0.47,4.83,0.7c0.46-2.13,0.82-4.22,0.28-6.35c-0.48-1.9-1.42-2.43-3.29-1.82
		C23.32,4.78,21.7,6.09,20.18,7.53z M17.87,7.53C16.16,5.99,14.39,4.52,12.04,4c-1.38-0.3-2.17,0.13-2.59,1.49
		c-0.71,2.29-0.32,4.55,0.22,6.77c1.58-0.22,3.08-0.41,4.56-0.66c0.28-0.05,0.59-0.26,0.78-0.48C15.95,9.98,16.86,8.8,17.87,7.53z
		 M29.54,14.3c-0.62,1.51-1.21,2.96-1.8,4.41c-0.05,0.13-0.09,0.31-0.04,0.42c0.62,1.52,1.26,3.04,1.91,4.58
		c2.09-0.64,4.06-1.44,5.63-2.98c1.26-1.23,1.26-2.31-0.01-3.52C33.63,15.69,31.63,14.91,29.54,14.3z M21.28,26.67
		c-1.58,0-2.94,0-4.48,0c0.81,0.96,1.5,1.79,2.27,2.71C19.82,28.46,20.5,27.63,21.28,26.67z M28.05,24.18
		c-0.46-1.19-0.85-2.2-1.29-3.36c-0.78,1.37-1.47,2.56-2.26,3.95C25.73,24.56,26.79,24.38,28.05,24.18z M21.26,11.37
		c-0.82-0.98-1.5-1.8-2.24-2.7c-0.77,0.93-1.45,1.75-2.24,2.7C18.33,11.37,19.66,11.37,21.26,11.37z M10.03,24.25
		c1.23,0.18,2.28,0.34,3.51,0.52c-0.8-1.38-1.48-2.55-2.26-3.9C10.84,22.07,10.47,23.08,10.03,24.25z M27.98,13.85
		c-1.19-0.2-2.23-0.38-3.49-0.59c0.81,1.4,1.48,2.56,2.24,3.88C27.17,16.01,27.54,15.03,27.98,13.85z M11.32,17.05
		c0.72-1.25,1.37-2.37,2.02-3.49c0.02-0.04,0-0.11,0-0.29c-1.07,0.19-2.12,0.37-3.27,0.57c0.32,0.91,0.58,1.66,0.86,2.4
		C11.02,16.48,11.16,16.71,11.32,17.05z"/>
	<path class="st0" d="M21.26,11.37c-1.6,0-2.94,0-4.48,0"/>
	<path class="st0" d="M18.98,22.28c-1.86-0.01-3.33-1.51-3.3-3.36c0.03-1.82,1.5-3.27,3.31-3.28c1.86-0.01,3.34,1.47,3.34,3.33
		C22.32,20.84,20.85,22.29,18.98,22.28z"/>
</g>
</svg>
