<?xml version="1.0" encoding="utf-8"?>
<svg version="1.1" id="Layer_1" xmlns="http://www.w3.org/2000/svg" xmlns:xlink="http://www.w3.org/1999/xlink" x="0px" y="0px"
	 viewBox="0 0 38 38" style="enable-background:new 0 0 38 38;" xml:space="preserve">
<style type="text/css">
	.st0{fill:#0080FF;}
	.st1{fill:#FFFFFF;}
</style>
<rect class="st0" width="38" height="38"/>
<path class="st1" d="M5.82,28.46c0-2.88,0-5.75,0-8.63c3.52-0.04,7.04-0.07,10.55-0.11c0,3.39,0,6.79,0,10.18
	C12.86,29.43,9.34,28.95,5.82,28.46z"/>
<path class="st1" d="M5.82,18.02c0-2.86,0-5.71,0-8.57c3.5-0.46,7-0.93,10.5-1.39c0,3.3,0,6.61,0,9.91
	C12.82,17.98,9.32,18,5.82,18.02z"/>
<path class="st1" d="M18.2,7.79c4.64-0.7,9.29-1.39,13.93-2.09c0.02,4.07,0.04,8.14,0.05,12.21c-4.68,0.04-9.36,0.07-14.04,0.11
	C18.16,14.61,18.18,11.2,18.2,7.79z"/>
<path class="st1" d="M18.09,19.84c4.66-0.04,9.32-0.07,13.98-0.11c0,4.11,0,8.21,0,12.32c-4.64-0.66-9.29-1.32-13.93-1.98
	C18.13,26.66,18.11,23.25,18.09,19.84z"/>
</svg>
