<?xml version="1.0" encoding="utf-8"?>
<svg version="1.1" id="Layer_1" xmlns="http://www.w3.org/2000/svg" xmlns:xlink="http://www.w3.org/1999/xlink" x="0px" y="0px"
	 viewBox="0 0 48 48" style="enable-background:new 0 0 48 48;" xml:space="preserve">
<style type="text/css">
	.st0{fill:#FF41C8;}
	.st1{fill:#16020B;}
</style>
<path class="st0" d="M0,5.3C0,2.4,2.4,0,5.3,0h37.3C45.6,0,48,2.4,48,5.3v37.3c0,2.9-2.4,5.3-5.3,5.3H5.3C2.4,48,0,45.6,0,42.7V5.3z
	"/>
<path class="st1" d="M4,4v40h40V4H4z M17.5,20.9l2.6-6.5h4.4l-4.5,9.4l4.6,9.6h-4.4l-2.6-6.6l-2.6,6.6h-4.4l4.6-9.6l-4.5-9.4h4.4
	L17.5,20.9z M25.4,25.9c0-2.3,0.4-4,1.2-5.2c0.8-1.1,1.9-1.7,3.4-1.7c1.1,0,2,0.5,2.7,1.4v-7.1h3.7v20h-3.3l-0.2-1.4
	c-0.8,1.1-1.7,1.7-2.9,1.7c-1.5,0-2.6-0.6-3.4-1.7c-0.8-1.1-1.2-2.8-1.2-5L25.4,25.9L25.4,25.9z M29.1,26.8c0,1.4,0.1,2.4,0.4,2.9
	c0.3,0.6,0.8,0.8,1.5,0.8c0.7,0,1.3-0.3,1.7-1v-6.4c-0.4-0.7-0.9-1-1.6-1c-0.7,0-1.2,0.3-1.5,0.8c-0.3,0.5-0.5,1.5-0.5,2.9V26.8z"/>
</svg>
